  0
SECTION
  2
BLOCKS
  0
ENDSEC
  0
SECTION
  2
ENTITIES
  0
LINE
  8
0
 10
-17.9405
 20
18
 11
-18
 21
18
  0
LINE
  8
0
 10
-18
 20
18
 11
-18
 21
17.9442
  0
LINE
  8
0
 10
-18
 20
17.9442
 11
-17.9405
 21
18
  0
LINE
  8
0
 10
12.9486
 20
-17.8959
 11
12.6684
 21
-17.5572
  0
LINE
  8
0
 10
12.6684
 20
-17.5572
 11
12.4329
 21
-17.1861
  0
LINE
  8
0
 10
12.4329
 20
-17.1861
 11
12.2458
 21
-16.7884
  0
LINE
  8
0
 10
12.2458
 20
-16.7884
 11
12.11
 21
-16.3704
  0
LINE
  8
0
 10
12.11
 20
-16.3704
 11
12.0276
 21
-15.9387
  0
LINE
  8
0
 10
12.0276
 20
-15.9387
 11
12
 21
-15.5
  0
LINE
  8
0
 10
12
 20
-15.5
 11
12.0276
 21
-15.0613
  0
LINE
  8
0
 10
12.0276
 20
-15.0613
 11
12.11
 21
-14.6296
  0
LINE
  8
0
 10
12.11
 20
-14.6296
 11
12.2458
 21
-14.2116
  0
LINE
  8
0
 10
12.2458
 20
-14.2116
 11
12.4329
 21
-13.8139
  0
LINE
  8
0
 10
12.4329
 20
-13.8139
 11
12.6684
 21
-13.4427
  0
LINE
  8
0
 10
12.6684
 20
-13.4427
 11
12.9486
 21
-13.1041
  0
LINE
  8
0
 10
12.9486
 20
-13.1041
 11
13.269
 21
-12.8032
  0
LINE
  8
0
 10
13.269
 20
-12.8032
 11
13.6246
 21
-12.5448
  0
LINE
  8
0
 10
13.6246
 20
-12.5448
 11
14.0098
 21
-12.3331
  0
LINE
  8
0
 10
14.0098
 20
-12.3331
 11
14.4184
 21
-12.1713
  0
LINE
  8
0
 10
14.4184
 20
-12.1713
 11
14.8442
 21
-12.062
  0
LINE
  8
0
 10
14.8442
 20
-12.062
 11
15.2802
 21
-12.0069
  0
LINE
  8
0
 10
15.2802
 20
-12.0069
 11
15.7198
 21
-12.0069
  0
LINE
  8
0
 10
15.7198
 20
-12.0069
 11
16.1558
 21
-12.062
  0
LINE
  8
0
 10
16.1558
 20
-12.062
 11
16.5816
 21
-12.1713
  0
LINE
  8
0
 10
16.5816
 20
-12.1713
 11
16.9902
 21
-12.3331
  0
LINE
  8
0
 10
16.9902
 20
-12.3331
 11
17.3754
 21
-12.5448
  0
LINE
  8
0
 10
17.3754
 20
-12.5448
 11
17.731
 21
-12.8032
  0
LINE
  8
0
 10
17.731
 20
-12.8032
 11
18
 21
-13.0558
  0
LINE
  8
0
 10
18
 20
-13.0558
 11
18
 21
13.0558
  0
LINE
  8
0
 10
18
 20
13.0558
 11
17.731
 21
12.8032
  0
LINE
  8
0
 10
17.731
 20
12.8032
 11
17.3754
 21
12.5448
  0
LINE
  8
0
 10
17.3754
 20
12.5448
 11
16.9902
 21
12.3331
  0
LINE
  8
0
 10
16.9902
 20
12.3331
 11
16.5816
 21
12.1713
  0
LINE
  8
0
 10
16.5816
 20
12.1713
 11
16.1558
 21
12.062
  0
LINE
  8
0
 10
16.1558
 20
12.062
 11
15.7198
 21
12.0069
  0
LINE
  8
0
 10
15.7198
 20
12.0069
 11
15.2802
 21
12.0069
  0
LINE
  8
0
 10
15.2802
 20
12.0069
 11
14.8442
 21
12.062
  0
LINE
  8
0
 10
14.8442
 20
12.062
 11
14.4184
 21
12.1713
  0
LINE
  8
0
 10
14.4184
 20
12.1713
 11
14.0098
 21
12.3331
  0
LINE
  8
0
 10
14.0098
 20
12.3331
 11
13.6246
 21
12.5448
  0
LINE
  8
0
 10
13.6246
 20
12.5448
 11
13.269
 21
12.8032
  0
LINE
  8
0
 10
13.269
 20
12.8032
 11
12.9486
 21
13.1041
  0
LINE
  8
0
 10
12.9486
 20
13.1041
 11
12.6684
 21
13.4427
  0
LINE
  8
0
 10
12.6684
 20
13.4427
 11
12.4329
 21
13.8139
  0
LINE
  8
0
 10
12.4329
 20
13.8139
 11
12.2458
 21
14.2116
  0
LINE
  8
0
 10
12.2458
 20
14.2116
 11
12.11
 21
14.6296
  0
LINE
  8
0
 10
12.11
 20
14.6296
 11
12.0276
 21
15.0613
  0
LINE
  8
0
 10
12.0276
 20
15.0613
 11
12
 21
15.5
  0
LINE
  8
0
 10
12
 20
15.5
 11
12.0276
 21
15.9387
  0
LINE
  8
0
 10
12.0276
 20
15.9387
 11
12.11
 21
16.3704
  0
LINE
  8
0
 10
12.11
 20
16.3704
 11
12.2458
 21
16.7884
  0
LINE
  8
0
 10
12.2458
 20
16.7884
 11
12.4329
 21
17.1861
  0
LINE
  8
0
 10
12.4329
 20
17.1861
 11
12.6684
 21
17.5572
  0
LINE
  8
0
 10
12.6684
 20
17.5572
 11
12.9486
 21
17.8959
  0
LINE
  8
0
 10
12.9486
 20
17.8959
 11
13.0594
 21
18
  0
LINE
  8
0
 10
13.0594
 20
18
 11
-13.0594
 21
18
  0
LINE
  8
0
 10
-13.0594
 20
18
 11
-12.9486
 21
17.8959
  0
LINE
  8
0
 10
-12.9486
 20
17.8959
 11
-12.6684
 21
17.5572
  0
LINE
  8
0
 10
-12.6684
 20
17.5572
 11
-12.4329
 21
17.1861
  0
LINE
  8
0
 10
-12.4329
 20
17.1861
 11
-12.2458
 21
16.7884
  0
LINE
  8
0
 10
-12.2458
 20
16.7884
 11
-12.11
 21
16.3704
  0
LINE
  8
0
 10
-12.11
 20
16.3704
 11
-12.0276
 21
15.9387
  0
LINE
  8
0
 10
-12.0276
 20
15.9387
 11
-12
 21
15.5
  0
LINE
  8
0
 10
-12
 20
15.5
 11
-12.0276
 21
15.0613
  0
LINE
  8
0
 10
-12.0276
 20
15.0613
 11
-12.11
 21
14.6296
  0
LINE
  8
0
 10
-12.11
 20
14.6296
 11
-12.2458
 21
14.2116
  0
LINE
  8
0
 10
-12.2458
 20
14.2116
 11
-12.4329
 21
13.8139
  0
LINE
  8
0
 10
-12.4329
 20
13.8139
 11
-12.6684
 21
13.4427
  0
LINE
  8
0
 10
-12.6684
 20
13.4427
 11
-12.9486
 21
13.1041
  0
LINE
  8
0
 10
-12.9486
 20
13.1041
 11
-13.269
 21
12.8032
  0
LINE
  8
0
 10
-13.269
 20
12.8032
 11
-13.6246
 21
12.5448
  0
LINE
  8
0
 10
-13.6246
 20
12.5448
 11
-14.0098
 21
12.3331
  0
LINE
  8
0
 10
-14.0098
 20
12.3331
 11
-14.4184
 21
12.1713
  0
LINE
  8
0
 10
-14.4184
 20
12.1713
 11
-14.8442
 21
12.062
  0
LINE
  8
0
 10
-14.8442
 20
12.062
 11
-15.2802
 21
12.0069
  0
LINE
  8
0
 10
-15.2802
 20
12.0069
 11
-15.7198
 21
12.0069
  0
LINE
  8
0
 10
-15.7198
 20
12.0069
 11
-16.1558
 21
12.062
  0
LINE
  8
0
 10
-16.1558
 20
12.062
 11
-16.5816
 21
12.1713
  0
LINE
  8
0
 10
-16.5816
 20
12.1713
 11
-16.9902
 21
12.3331
  0
LINE
  8
0
 10
-16.9902
 20
12.3331
 11
-17.3754
 21
12.5448
  0
LINE
  8
0
 10
-17.3754
 20
12.5448
 11
-17.731
 21
12.8032
  0
LINE
  8
0
 10
-17.731
 20
12.8032
 11
-18
 21
13.0558
  0
LINE
  8
0
 10
-18
 20
13.0558
 11
-18
 21
-13.0558
  0
LINE
  8
0
 10
-18
 20
-13.0558
 11
-17.731
 21
-12.8032
  0
LINE
  8
0
 10
-17.731
 20
-12.8032
 11
-17.3754
 21
-12.5448
  0
LINE
  8
0
 10
-17.3754
 20
-12.5448
 11
-16.9902
 21
-12.3331
  0
LINE
  8
0
 10
-16.9902
 20
-12.3331
 11
-16.5816
 21
-12.1713
  0
LINE
  8
0
 10
-16.5816
 20
-12.1713
 11
-16.1558
 21
-12.062
  0
LINE
  8
0
 10
-16.1558
 20
-12.062
 11
-15.7198
 21
-12.0069
  0
LINE
  8
0
 10
-15.7198
 20
-12.0069
 11
-15.2802
 21
-12.0069
  0
LINE
  8
0
 10
-15.2802
 20
-12.0069
 11
-14.8442
 21
-12.062
  0
LINE
  8
0
 10
-14.8442
 20
-12.062
 11
-14.4184
 21
-12.1713
  0
LINE
  8
0
 10
-14.4184
 20
-12.1713
 11
-14.0098
 21
-12.3331
  0
LINE
  8
0
 10
-14.0098
 20
-12.3331
 11
-13.6246
 21
-12.5448
  0
LINE
  8
0
 10
-13.6246
 20
-12.5448
 11
-13.269
 21
-12.8032
  0
LINE
  8
0
 10
-13.269
 20
-12.8032
 11
-12.9486
 21
-13.1041
  0
LINE
  8
0
 10
-12.9486
 20
-13.1041
 11
-12.6684
 21
-13.4427
  0
LINE
  8
0
 10
-12.6684
 20
-13.4427
 11
-12.4329
 21
-13.8139
  0
LINE
  8
0
 10
-12.4329
 20
-13.8139
 11
-12.2458
 21
-14.2116
  0
LINE
  8
0
 10
-12.2458
 20
-14.2116
 11
-12.11
 21
-14.6296
  0
LINE
  8
0
 10
-12.11
 20
-14.6296
 11
-12.0276
 21
-15.0613
  0
LINE
  8
0
 10
-12.0276
 20
-15.0613
 11
-12
 21
-15.5
  0
LINE
  8
0
 10
-12
 20
-15.5
 11
-12.0276
 21
-15.9387
  0
LINE
  8
0
 10
-12.0276
 20
-15.9387
 11
-12.11
 21
-16.3704
  0
LINE
  8
0
 10
-12.11
 20
-16.3704
 11
-12.2458
 21
-16.7884
  0
LINE
  8
0
 10
-12.2458
 20
-16.7884
 11
-12.4329
 21
-17.1861
  0
LINE
  8
0
 10
-12.4329
 20
-17.1861
 11
-12.6684
 21
-17.5572
  0
LINE
  8
0
 10
-12.6684
 20
-17.5572
 11
-12.9486
 21
-17.8959
  0
LINE
  8
0
 10
-12.9486
 20
-17.8959
 11
-13.0594
 21
-18
  0
LINE
  8
0
 10
-13.0594
 20
-18
 11
13.0594
 21
-18
  0
LINE
  8
0
 10
13.0594
 20
-18
 11
12.9486
 21
-17.8959
  0
LINE
  8
0
 10
-8.13814
 20
5.80434
 11
-8.41223
 21
5.83896
  0
LINE
  8
0
 10
-8.41223
 20
5.83896
 11
-8.67982
 21
5.90767
  0
LINE
  8
0
 10
-8.67982
 20
5.90767
 11
-8.93671
 21
6.00937
  0
LINE
  8
0
 10
-8.93671
 20
6.00937
 11
-9.17882
 21
6.14247
  0
LINE
  8
0
 10
-9.17882
 20
6.14247
 11
-9.40233
 21
6.30487
  0
LINE
  8
0
 10
-9.40233
 20
6.30487
 11
-9.60373
 21
6.49399
  0
LINE
  8
0
 10
-9.60373
 20
6.49399
 11
-9.77983
 21
6.70686
  0
LINE
  8
0
 10
-9.77983
 20
6.70686
 11
-9.92787
 21
6.94014
  0
LINE
  8
0
 10
-9.92787
 20
6.94014
 11
-10.0455
 21
7.19012
  0
LINE
  8
0
 10
-10.0455
 20
7.19012
 11
-10.1309
 21
7.45288
  0
LINE
  8
0
 10
-10.1309
 20
7.45288
 11
-10.1826
 21
7.72426
  0
LINE
  8
0
 10
-10.1826
 20
7.72426
 11
-10.2
 21
8
  0
LINE
  8
0
 10
-10.2
 20
8
 11
-10.1826
 21
8.27573
  0
LINE
  8
0
 10
-10.1826
 20
8.27573
 11
-10.1309
 21
8.5471
  0
LINE
  8
0
 10
-10.1309
 20
8.5471
 11
-10.0455
 21
8.80986
  0
LINE
  8
0
 10
-10.0455
 20
8.80986
 11
-9.92787
 21
9.05984
  0
LINE
  8
0
 10
-9.92787
 20
9.05984
 11
-9.77983
 21
9.29312
  0
LINE
  8
0
 10
-9.77983
 20
9.29312
 11
-9.60373
 21
9.506
  0
LINE
  8
0
 10
-9.60373
 20
9.506
 11
-9.40233
 21
9.69511
  0
LINE
  8
0
 10
-9.40233
 20
9.69511
 11
-9.17882
 21
9.85751
  0
LINE
  8
0
 10
-9.17882
 20
9.85751
 11
-8.93671
 21
9.99062
  0
LINE
  8
0
 10
-8.93671
 20
9.99062
 11
-8.67982
 21
10.0923
  0
LINE
  8
0
 10
-8.67982
 20
10.0923
 11
-8.41223
 21
10.161
  0
LINE
  8
0
 10
-8.41223
 20
10.161
 11
-8.13814
 21
10.1956
  0
LINE
  8
0
 10
-8.13814
 20
10.1956
 11
-7.86185
 21
10.1956
  0
LINE
  8
0
 10
-7.86185
 20
10.1956
 11
-7.58775
 21
10.161
  0
LINE
  8
0
 10
-7.58775
 20
10.161
 11
-7.32016
 21
10.0923
  0
LINE
  8
0
 10
-7.32016
 20
10.0923
 11
-7.06328
 21
9.99062
  0
LINE
  8
0
 10
-7.06328
 20
9.99062
 11
-6.82117
 21
9.85751
  0
LINE
  8
0
 10
-6.82117
 20
9.85751
 11
-6.59766
 21
9.69511
  0
LINE
  8
0
 10
-6.59766
 20
9.69511
 11
-6.39626
 21
9.506
  0
LINE
  8
0
 10
-6.39626
 20
9.506
 11
-6.22015
 21
9.29312
  0
LINE
  8
0
 10
-6.22015
 20
9.29312
 11
-6.07211
 21
9.05984
  0
LINE
  8
0
 10
-6.07211
 20
9.05984
 11
-5.95448
 21
8.80986
  0
LINE
  8
0
 10
-5.95448
 20
8.80986
 11
-5.86911
 21
8.5471
  0
LINE
  8
0
 10
-5.86911
 20
8.5471
 11
-5.81734
 21
8.27573
  0
LINE
  8
0
 10
-5.81734
 20
8.27573
 11
-5.79999
 21
8
  0
LINE
  8
0
 10
-5.79999
 20
8
 11
-5.81734
 21
7.72426
  0
LINE
  8
0
 10
-5.81734
 20
7.72426
 11
-5.86911
 21
7.45288
  0
LINE
  8
0
 10
-5.86911
 20
7.45288
 11
-5.95448
 21
7.19012
  0
LINE
  8
0
 10
-5.95448
 20
7.19012
 11
-6.07211
 21
6.94014
  0
LINE
  8
0
 10
-6.07211
 20
6.94014
 11
-6.22015
 21
6.70686
  0
LINE
  8
0
 10
-6.22015
 20
6.70686
 11
-6.39626
 21
6.49399
  0
LINE
  8
0
 10
-6.39626
 20
6.49399
 11
-6.59766
 21
6.30487
  0
LINE
  8
0
 10
-6.59766
 20
6.30487
 11
-6.82117
 21
6.14247
  0
LINE
  8
0
 10
-6.82117
 20
6.14247
 11
-7.06328
 21
6.00937
  0
LINE
  8
0
 10
-7.06328
 20
6.00937
 11
-7.32016
 21
5.90767
  0
LINE
  8
0
 10
-7.32016
 20
5.90767
 11
-7.58775
 21
5.83896
  0
LINE
  8
0
 10
-7.58775
 20
5.83896
 11
-7.86185
 21
5.80434
  0
LINE
  8
0
 10
-7.86185
 20
5.80434
 11
-8.13814
 21
5.80434
  0
LINE
  8
0
 10
7.86185
 20
5.80434
 11
7.58775
 21
5.83896
  0
LINE
  8
0
 10
7.58775
 20
5.83896
 11
7.32016
 21
5.90767
  0
LINE
  8
0
 10
7.32016
 20
5.90767
 11
7.06328
 21
6.00937
  0
LINE
  8
0
 10
7.06328
 20
6.00937
 11
6.82117
 21
6.14247
  0
LINE
  8
0
 10
6.82117
 20
6.14247
 11
6.59766
 21
6.30487
  0
LINE
  8
0
 10
6.59766
 20
6.30487
 11
6.39626
 21
6.49399
  0
LINE
  8
0
 10
6.39626
 20
6.49399
 11
6.22015
 21
6.70686
  0
LINE
  8
0
 10
6.22015
 20
6.70686
 11
6.07211
 21
6.94014
  0
LINE
  8
0
 10
6.07211
 20
6.94014
 11
5.95448
 21
7.19012
  0
LINE
  8
0
 10
5.95448
 20
7.19012
 11
5.86911
 21
7.45288
  0
LINE
  8
0
 10
5.86911
 20
7.45288
 11
5.81734
 21
7.72426
  0
LINE
  8
0
 10
5.81734
 20
7.72426
 11
5.79999
 21
8
  0
LINE
  8
0
 10
5.79999
 20
8
 11
5.81734
 21
8.27573
  0
LINE
  8
0
 10
5.81734
 20
8.27573
 11
5.86911
 21
8.5471
  0
LINE
  8
0
 10
5.86911
 20
8.5471
 11
5.95448
 21
8.80986
  0
LINE
  8
0
 10
5.95448
 20
8.80986
 11
6.07211
 21
9.05984
  0
LINE
  8
0
 10
6.07211
 20
9.05984
 11
6.22015
 21
9.29312
  0
LINE
  8
0
 10
6.22015
 20
9.29312
 11
6.39626
 21
9.506
  0
LINE
  8
0
 10
6.39626
 20
9.506
 11
6.59766
 21
9.69511
  0
LINE
  8
0
 10
6.59766
 20
9.69511
 11
6.82117
 21
9.85751
  0
LINE
  8
0
 10
6.82117
 20
9.85751
 11
7.06328
 21
9.99062
  0
LINE
  8
0
 10
7.06328
 20
9.99062
 11
7.32016
 21
10.0923
  0
LINE
  8
0
 10
7.32016
 20
10.0923
 11
7.58775
 21
10.161
  0
LINE
  8
0
 10
7.58775
 20
10.161
 11
7.86185
 21
10.1956
  0
LINE
  8
0
 10
7.86185
 20
10.1956
 11
8.13814
 21
10.1956
  0
LINE
  8
0
 10
8.13814
 20
10.1956
 11
8.41223
 21
10.161
  0
LINE
  8
0
 10
8.41223
 20
10.161
 11
8.67982
 21
10.0923
  0
LINE
  8
0
 10
8.67982
 20
10.0923
 11
8.93671
 21
9.99062
  0
LINE
  8
0
 10
8.93671
 20
9.99062
 11
9.17882
 21
9.85751
  0
LINE
  8
0
 10
9.17882
 20
9.85751
 11
9.40233
 21
9.69511
  0
LINE
  8
0
 10
9.40233
 20
9.69511
 11
9.60373
 21
9.506
  0
LINE
  8
0
 10
9.60373
 20
9.506
 11
9.77983
 21
9.29312
  0
LINE
  8
0
 10
9.77983
 20
9.29312
 11
9.92787
 21
9.05984
  0
LINE
  8
0
 10
9.92787
 20
9.05984
 11
10.0455
 21
8.80986
  0
LINE
  8
0
 10
10.0455
 20
8.80986
 11
10.1309
 21
8.5471
  0
LINE
  8
0
 10
10.1309
 20
8.5471
 11
10.1826
 21
8.27573
  0
LINE
  8
0
 10
10.1826
 20
8.27573
 11
10.2
 21
8
  0
LINE
  8
0
 10
10.2
 20
8
 11
10.1826
 21
7.72426
  0
LINE
  8
0
 10
10.1826
 20
7.72426
 11
10.1309
 21
7.45288
  0
LINE
  8
0
 10
10.1309
 20
7.45288
 11
10.0455
 21
7.19012
  0
LINE
  8
0
 10
10.0455
 20
7.19012
 11
9.92787
 21
6.94014
  0
LINE
  8
0
 10
9.92787
 20
6.94014
 11
9.77983
 21
6.70686
  0
LINE
  8
0
 10
9.77983
 20
6.70686
 11
9.60373
 21
6.49399
  0
LINE
  8
0
 10
9.60373
 20
6.49399
 11
9.40233
 21
6.30487
  0
LINE
  8
0
 10
9.40233
 20
6.30487
 11
9.17882
 21
6.14247
  0
LINE
  8
0
 10
9.17882
 20
6.14247
 11
8.93671
 21
6.00937
  0
LINE
  8
0
 10
8.93671
 20
6.00937
 11
8.67982
 21
5.90767
  0
LINE
  8
0
 10
8.67982
 20
5.90767
 11
8.41223
 21
5.83896
  0
LINE
  8
0
 10
8.41223
 20
5.83896
 11
8.13814
 21
5.80434
  0
LINE
  8
0
 10
8.13814
 20
5.80434
 11
7.86185
 21
5.80434
  0
LINE
  8
0
 10
-0.37674
 20
-5.98816
 11
-1.12428
 21
-5.89372
  0
LINE
  8
0
 10
-1.12428
 20
-5.89372
 11
-1.8541
 21
-5.70633
  0
LINE
  8
0
 10
-1.8541
 20
-5.70633
 11
-2.55467
 21
-5.42896
  0
LINE
  8
0
 10
-2.55467
 20
-5.42896
 11
-3.21495
 21
-5.06596
  0
LINE
  8
0
 10
-3.21495
 20
-5.06596
 11
-3.82454
 21
-4.62308
  0
LINE
  8
0
 10
-3.82454
 20
-4.62308
 11
-4.37381
 21
-4.10727
  0
LINE
  8
0
 10
-4.37381
 20
-4.10727
 11
-4.8541
 21
-3.5267
  0
LINE
  8
0
 10
-4.8541
 20
-3.5267
 11
-5.25783
 21
-2.89052
  0
LINE
  8
0
 10
-5.25783
 20
-2.89052
 11
-5.57864
 21
-2.20874
  0
LINE
  8
0
 10
-5.57864
 20
-2.20874
 11
-5.81149
 21
-1.49213
  0
LINE
  8
0
 10
-5.81149
 20
-1.49213
 11
-5.95268
 21
-0.751999
  0
LINE
  8
0
 10
-5.95268
 20
-0.751999
 11
-6
 21
0
  0
LINE
  8
0
 10
-6
 20
0
 11
-5.95268
 21
0.751999
  0
LINE
  8
0
 10
-5.95268
 20
0.751999
 11
-5.81149
 21
1.49213
  0
LINE
  8
0
 10
-5.81149
 20
1.49213
 11
-5.57864
 21
2.20874
  0
LINE
  8
0
 10
-5.57864
 20
2.20874
 11
-5.25783
 21
2.89052
  0
LINE
  8
0
 10
-5.25783
 20
2.89052
 11
-4.8541
 21
3.5267
  0
LINE
  8
0
 10
-4.8541
 20
3.5267
 11
-4.37381
 21
4.10727
  0
LINE
  8
0
 10
-4.37381
 20
4.10727
 11
-3.82454
 21
4.62308
  0
LINE
  8
0
 10
-3.82454
 20
4.62308
 11
-3.21495
 21
5.06596
  0
LINE
  8
0
 10
-3.21495
 20
5.06596
 11
-2.55467
 21
5.42896
  0
LINE
  8
0
 10
-2.55467
 20
5.42896
 11
-1.8541
 21
5.70633
  0
LINE
  8
0
 10
-1.8541
 20
5.70633
 11
-1.12428
 21
5.89372
  0
LINE
  8
0
 10
-1.12428
 20
5.89372
 11
-0.37674
 21
5.98816
  0
LINE
  8
0
 10
-0.37674
 20
5.98816
 11
0.37674
 21
5.98816
  0
LINE
  8
0
 10
0.37674
 20
5.98816
 11
1.12428
 21
5.89372
  0
LINE
  8
0
 10
1.12428
 20
5.89372
 11
1.8541
 21
5.70633
  0
LINE
  8
0
 10
1.8541
 20
5.70633
 11
2.55467
 21
5.42896
  0
LINE
  8
0
 10
2.55467
 20
5.42896
 11
3.21495
 21
5.06596
  0
LINE
  8
0
 10
3.21495
 20
5.06596
 11
3.82454
 21
4.62308
  0
LINE
  8
0
 10
3.82454
 20
4.62308
 11
4.37381
 21
4.10727
  0
LINE
  8
0
 10
4.37381
 20
4.10727
 11
4.8541
 21
3.5267
  0
LINE
  8
0
 10
4.8541
 20
3.5267
 11
5.25783
 21
2.89052
  0
LINE
  8
0
 10
5.25783
 20
2.89052
 11
5.57864
 21
2.20874
  0
LINE
  8
0
 10
5.57864
 20
2.20874
 11
5.81149
 21
1.49213
  0
LINE
  8
0
 10
5.81149
 20
1.49213
 11
5.95268
 21
0.751999
  0
LINE
  8
0
 10
5.95268
 20
0.751999
 11
6
 21
0
  0
LINE
  8
0
 10
6
 20
0
 11
5.95268
 21
-0.751999
  0
LINE
  8
0
 10
5.95268
 20
-0.751999
 11
5.81149
 21
-1.49213
  0
LINE
  8
0
 10
5.81149
 20
-1.49213
 11
5.57864
 21
-2.20874
  0
LINE
  8
0
 10
5.57864
 20
-2.20874
 11
5.25783
 21
-2.89052
  0
LINE
  8
0
 10
5.25783
 20
-2.89052
 11
4.8541
 21
-3.5267
  0
LINE
  8
0
 10
4.8541
 20
-3.5267
 11
4.37381
 21
-4.10727
  0
LINE
  8
0
 10
4.37381
 20
-4.10727
 11
3.82454
 21
-4.62308
  0
LINE
  8
0
 10
3.82454
 20
-4.62308
 11
3.21495
 21
-5.06596
  0
LINE
  8
0
 10
3.21495
 20
-5.06596
 11
2.55467
 21
-5.42896
  0
LINE
  8
0
 10
2.55467
 20
-5.42896
 11
1.8541
 21
-5.70633
  0
LINE
  8
0
 10
1.8541
 20
-5.70633
 11
1.12428
 21
-5.89372
  0
LINE
  8
0
 10
1.12428
 20
-5.89372
 11
0.37674
 21
-5.98816
  0
LINE
  8
0
 10
0.37674
 20
-5.98816
 11
-0.37674
 21
-5.98816
  0
LINE
  8
0
 10
-8.13814
 20
-10.1956
 11
-8.41223
 21
-10.161
  0
LINE
  8
0
 10
-8.41223
 20
-10.161
 11
-8.67982
 21
-10.0923
  0
LINE
  8
0
 10
-8.67982
 20
-10.0923
 11
-8.93671
 21
-9.99062
  0
LINE
  8
0
 10
-8.93671
 20
-9.99062
 11
-9.17882
 21
-9.85751
  0
LINE
  8
0
 10
-9.17882
 20
-9.85751
 11
-9.40233
 21
-9.69511
  0
LINE
  8
0
 10
-9.40233
 20
-9.69511
 11
-9.60373
 21
-9.506
  0
LINE
  8
0
 10
-9.60373
 20
-9.506
 11
-9.77983
 21
-9.29312
  0
LINE
  8
0
 10
-9.77983
 20
-9.29312
 11
-9.92787
 21
-9.05984
  0
LINE
  8
0
 10
-9.92787
 20
-9.05984
 11
-10.0455
 21
-8.80986
  0
LINE
  8
0
 10
-10.0455
 20
-8.80986
 11
-10.1309
 21
-8.5471
  0
LINE
  8
0
 10
-10.1309
 20
-8.5471
 11
-10.1826
 21
-8.27573
  0
LINE
  8
0
 10
-10.1826
 20
-8.27573
 11
-10.2
 21
-8
  0
LINE
  8
0
 10
-10.2
 20
-8
 11
-10.1826
 21
-7.72426
  0
LINE
  8
0
 10
-10.1826
 20
-7.72426
 11
-10.1309
 21
-7.45288
  0
LINE
  8
0
 10
-10.1309
 20
-7.45288
 11
-10.0455
 21
-7.19012
  0
LINE
  8
0
 10
-10.0455
 20
-7.19012
 11
-9.92787
 21
-6.94014
  0
LINE
  8
0
 10
-9.92787
 20
-6.94014
 11
-9.77983
 21
-6.70686
  0
LINE
  8
0
 10
-9.77983
 20
-6.70686
 11
-9.60373
 21
-6.49399
  0
LINE
  8
0
 10
-9.60373
 20
-6.49399
 11
-9.40233
 21
-6.30487
  0
LINE
  8
0
 10
-9.40233
 20
-6.30487
 11
-9.17882
 21
-6.14247
  0
LINE
  8
0
 10
-9.17882
 20
-6.14247
 11
-8.93671
 21
-6.00937
  0
LINE
  8
0
 10
-8.93671
 20
-6.00937
 11
-8.67982
 21
-5.90767
  0
LINE
  8
0
 10
-8.67982
 20
-5.90767
 11
-8.41223
 21
-5.83896
  0
LINE
  8
0
 10
-8.41223
 20
-5.83896
 11
-8.13814
 21
-5.80434
  0
LINE
  8
0
 10
-8.13814
 20
-5.80434
 11
-7.86185
 21
-5.80434
  0
LINE
  8
0
 10
-7.86185
 20
-5.80434
 11
-7.58775
 21
-5.83896
  0
LINE
  8
0
 10
-7.58775
 20
-5.83896
 11
-7.32016
 21
-5.90767
  0
LINE
  8
0
 10
-7.32016
 20
-5.90767
 11
-7.06328
 21
-6.00937
  0
LINE
  8
0
 10
-7.06328
 20
-6.00937
 11
-6.82117
 21
-6.14247
  0
LINE
  8
0
 10
-6.82117
 20
-6.14247
 11
-6.59766
 21
-6.30487
  0
LINE
  8
0
 10
-6.59766
 20
-6.30487
 11
-6.39626
 21
-6.49399
  0
LINE
  8
0
 10
-6.39626
 20
-6.49399
 11
-6.22015
 21
-6.70686
  0
LINE
  8
0
 10
-6.22015
 20
-6.70686
 11
-6.07211
 21
-6.94014
  0
LINE
  8
0
 10
-6.07211
 20
-6.94014
 11
-5.95448
 21
-7.19012
  0
LINE
  8
0
 10
-5.95448
 20
-7.19012
 11
-5.86911
 21
-7.45288
  0
LINE
  8
0
 10
-5.86911
 20
-7.45288
 11
-5.81734
 21
-7.72426
  0
LINE
  8
0
 10
-5.81734
 20
-7.72426
 11
-5.79999
 21
-8
  0
LINE
  8
0
 10
-5.79999
 20
-8
 11
-5.81734
 21
-8.27573
  0
LINE
  8
0
 10
-5.81734
 20
-8.27573
 11
-5.86911
 21
-8.5471
  0
LINE
  8
0
 10
-5.86911
 20
-8.5471
 11
-5.95448
 21
-8.80986
  0
LINE
  8
0
 10
-5.95448
 20
-8.80986
 11
-6.07211
 21
-9.05984
  0
LINE
  8
0
 10
-6.07211
 20
-9.05984
 11
-6.22015
 21
-9.29312
  0
LINE
  8
0
 10
-6.22015
 20
-9.29312
 11
-6.39626
 21
-9.506
  0
LINE
  8
0
 10
-6.39626
 20
-9.506
 11
-6.59766
 21
-9.69511
  0
LINE
  8
0
 10
-6.59766
 20
-9.69511
 11
-6.82117
 21
-9.85751
  0
LINE
  8
0
 10
-6.82117
 20
-9.85751
 11
-7.06328
 21
-9.99062
  0
LINE
  8
0
 10
-7.06328
 20
-9.99062
 11
-7.32016
 21
-10.0923
  0
LINE
  8
0
 10
-7.32016
 20
-10.0923
 11
-7.58775
 21
-10.161
  0
LINE
  8
0
 10
-7.58775
 20
-10.161
 11
-7.86185
 21
-10.1956
  0
LINE
  8
0
 10
-7.86185
 20
-10.1956
 11
-8.13814
 21
-10.1956
  0
LINE
  8
0
 10
7.86185
 20
-10.1956
 11
7.58775
 21
-10.161
  0
LINE
  8
0
 10
7.58775
 20
-10.161
 11
7.32016
 21
-10.0923
  0
LINE
  8
0
 10
7.32016
 20
-10.0923
 11
7.06328
 21
-9.99062
  0
LINE
  8
0
 10
7.06328
 20
-9.99062
 11
6.82117
 21
-9.85751
  0
LINE
  8
0
 10
6.82117
 20
-9.85751
 11
6.59766
 21
-9.69511
  0
LINE
  8
0
 10
6.59766
 20
-9.69511
 11
6.39626
 21
-9.506
  0
LINE
  8
0
 10
6.39626
 20
-9.506
 11
6.22015
 21
-9.29312
  0
LINE
  8
0
 10
6.22015
 20
-9.29312
 11
6.07211
 21
-9.05984
  0
LINE
  8
0
 10
6.07211
 20
-9.05984
 11
5.95448
 21
-8.80986
  0
LINE
  8
0
 10
5.95448
 20
-8.80986
 11
5.86911
 21
-8.5471
  0
LINE
  8
0
 10
5.86911
 20
-8.5471
 11
5.81734
 21
-8.27573
  0
LINE
  8
0
 10
5.81734
 20
-8.27573
 11
5.79999
 21
-8
  0
LINE
  8
0
 10
5.79999
 20
-8
 11
5.81734
 21
-7.72426
  0
LINE
  8
0
 10
5.81734
 20
-7.72426
 11
5.86911
 21
-7.45288
  0
LINE
  8
0
 10
5.86911
 20
-7.45288
 11
5.95448
 21
-7.19012
  0
LINE
  8
0
 10
5.95448
 20
-7.19012
 11
6.07211
 21
-6.94014
  0
LINE
  8
0
 10
6.07211
 20
-6.94014
 11
6.22015
 21
-6.70686
  0
LINE
  8
0
 10
6.22015
 20
-6.70686
 11
6.39626
 21
-6.49399
  0
LINE
  8
0
 10
6.39626
 20
-6.49399
 11
6.59766
 21
-6.30487
  0
LINE
  8
0
 10
6.59766
 20
-6.30487
 11
6.82117
 21
-6.14247
  0
LINE
  8
0
 10
6.82117
 20
-6.14247
 11
7.06328
 21
-6.00937
  0
LINE
  8
0
 10
7.06328
 20
-6.00937
 11
7.32016
 21
-5.90767
  0
LINE
  8
0
 10
7.32016
 20
-5.90767
 11
7.58775
 21
-5.83896
  0
LINE
  8
0
 10
7.58775
 20
-5.83896
 11
7.86185
 21
-5.80434
  0
LINE
  8
0
 10
7.86185
 20
-5.80434
 11
8.13814
 21
-5.80434
  0
LINE
  8
0
 10
8.13814
 20
-5.80434
 11
8.41223
 21
-5.83896
  0
LINE
  8
0
 10
8.41223
 20
-5.83896
 11
8.67982
 21
-5.90767
  0
LINE
  8
0
 10
8.67982
 20
-5.90767
 11
8.93671
 21
-6.00937
  0
LINE
  8
0
 10
8.93671
 20
-6.00937
 11
9.17882
 21
-6.14247
  0
LINE
  8
0
 10
9.17882
 20
-6.14247
 11
9.40233
 21
-6.30487
  0
LINE
  8
0
 10
9.40233
 20
-6.30487
 11
9.60373
 21
-6.49399
  0
LINE
  8
0
 10
9.60373
 20
-6.49399
 11
9.77983
 21
-6.70686
  0
LINE
  8
0
 10
9.77983
 20
-6.70686
 11
9.92787
 21
-6.94014
  0
LINE
  8
0
 10
9.92787
 20
-6.94014
 11
10.0455
 21
-7.19012
  0
LINE
  8
0
 10
10.0455
 20
-7.19012
 11
10.1309
 21
-7.45288
  0
LINE
  8
0
 10
10.1309
 20
-7.45288
 11
10.1826
 21
-7.72426
  0
LINE
  8
0
 10
10.1826
 20
-7.72426
 11
10.2
 21
-8
  0
LINE
  8
0
 10
10.2
 20
-8
 11
10.1826
 21
-8.27573
  0
LINE
  8
0
 10
10.1826
 20
-8.27573
 11
10.1309
 21
-8.5471
  0
LINE
  8
0
 10
10.1309
 20
-8.5471
 11
10.0455
 21
-8.80986
  0
LINE
  8
0
 10
10.0455
 20
-8.80986
 11
9.92787
 21
-9.05984
  0
LINE
  8
0
 10
9.92787
 20
-9.05984
 11
9.77983
 21
-9.29312
  0
LINE
  8
0
 10
9.77983
 20
-9.29312
 11
9.60373
 21
-9.506
  0
LINE
  8
0
 10
9.60373
 20
-9.506
 11
9.40233
 21
-9.69511
  0
LINE
  8
0
 10
9.40233
 20
-9.69511
 11
9.17882
 21
-9.85751
  0
LINE
  8
0
 10
9.17882
 20
-9.85751
 11
8.93671
 21
-9.99062
  0
LINE
  8
0
 10
8.93671
 20
-9.99062
 11
8.67982
 21
-10.0923
  0
LINE
  8
0
 10
8.67982
 20
-10.0923
 11
8.41223
 21
-10.161
  0
LINE
  8
0
 10
8.41223
 20
-10.161
 11
8.13814
 21
-10.1956
  0
LINE
  8
0
 10
8.13814
 20
-10.1956
 11
7.86185
 21
-10.1956
  0
LINE
  8
0
 10
18
 20
18
 11
17.9405
 21
18
  0
LINE
  8
0
 10
17.9405
 20
18
 11
18
 21
17.9442
  0
LINE
  8
0
 10
18
 20
17.9442
 11
18
 21
18
  0
LINE
  8
0
 10
-18
 20
-17.9442
 11
-18
 21
-18
  0
LINE
  8
0
 10
-18
 20
-18
 11
-17.9405
 21
-18
  0
LINE
  8
0
 10
-17.9405
 20
-18
 11
-18
 21
-17.9442
  0
LINE
  8
0
 10
18
 20
-17.9442
 11
17.9405
 21
-18
  0
LINE
  8
0
 10
17.9405
 20
-18
 11
18
 21
-18
  0
LINE
  8
0
 10
18
 20
-18
 11
18
 21
-17.9442
  0
ENDSEC
  0
SECTION
  2
OBJECTS
  0
DICTIONARY
  0
ENDSEC
  0
EOF
