  0
SECTION
  2
BLOCKS
  0
ENDSEC
  0
SECTION
  2
ENTITIES
  0
LINE
  8
0
 10
20.5
 20
20.5
 11
-20.5
 21
20.5
  0
LINE
  8
0
 10
-20.5
 20
20.5
 11
-20.5
 21
-20.5
  0
LINE
  8
0
 10
-20.5
 20
-20.5
 11
20.5
 21
-20.5
  0
LINE
  8
0
 10
20.5
 20
-20.5
 11
20.5
 21
20.5
  0
LINE
  8
0
 10
-15.6099
 20
13.7534
 11
-15.8279
 21
13.781
  0
LINE
  8
0
 10
-15.8279
 20
13.781
 11
-16.0408
 21
13.8356
  0
LINE
  8
0
 10
-16.0408
 20
13.8356
 11
-16.2451
 21
13.9165
  0
LINE
  8
0
 10
-16.2451
 20
13.9165
 11
-16.4377
 21
14.0224
  0
LINE
  8
0
 10
-16.4377
 20
14.0224
 11
-16.6155
 21
14.1516
  0
LINE
  8
0
 10
-16.6155
 20
14.1516
 11
-16.7757
 21
14.302
  0
LINE
  8
0
 10
-16.7757
 20
14.302
 11
-16.9158
 21
14.4714
  0
LINE
  8
0
 10
-16.9158
 20
14.4714
 11
-17.0335
 21
14.6569
  0
LINE
  8
0
 10
-17.0335
 20
14.6569
 11
-17.1271
 21
14.8558
  0
LINE
  8
0
 10
-17.1271
 20
14.8558
 11
-17.195
 21
15.0648
  0
LINE
  8
0
 10
-17.195
 20
15.0648
 11
-17.2362
 21
15.2807
  0
LINE
  8
0
 10
-17.2362
 20
15.2807
 11
-17.25
 21
15.5
  0
LINE
  8
0
 10
-17.25
 20
15.5
 11
-17.2362
 21
15.7193
  0
LINE
  8
0
 10
-17.2362
 20
15.7193
 11
-17.195
 21
15.9352
  0
LINE
  8
0
 10
-17.195
 20
15.9352
 11
-17.1271
 21
16.1442
  0
LINE
  8
0
 10
-17.1271
 20
16.1442
 11
-17.0335
 21
16.3431
  0
LINE
  8
0
 10
-17.0335
 20
16.3431
 11
-16.9158
 21
16.5286
  0
LINE
  8
0
 10
-16.9158
 20
16.5286
 11
-16.7757
 21
16.698
  0
LINE
  8
0
 10
-16.7757
 20
16.698
 11
-16.6155
 21
16.8484
  0
LINE
  8
0
 10
-16.6155
 20
16.8484
 11
-16.4377
 21
16.9776
  0
LINE
  8
0
 10
-16.4377
 20
16.9776
 11
-16.2451
 21
17.0834
  0
LINE
  8
0
 10
-16.2451
 20
17.0834
 11
-16.0408
 21
17.1643
  0
LINE
  8
0
 10
-16.0408
 20
17.1643
 11
-15.8279
 21
17.219
  0
LINE
  8
0
 10
-15.8279
 20
17.219
 11
-15.6099
 21
17.2465
  0
LINE
  8
0
 10
-15.6099
 20
17.2465
 11
-15.3901
 21
17.2465
  0
LINE
  8
0
 10
-15.3901
 20
17.2465
 11
-15.1721
 21
17.219
  0
LINE
  8
0
 10
-15.1721
 20
17.219
 11
-14.9592
 21
17.1643
  0
LINE
  8
0
 10
-14.9592
 20
17.1643
 11
-14.7549
 21
17.0834
  0
LINE
  8
0
 10
-14.7549
 20
17.0834
 11
-14.5623
 21
16.9776
  0
LINE
  8
0
 10
-14.5623
 20
16.9776
 11
-14.3845
 21
16.8484
  0
LINE
  8
0
 10
-14.3845
 20
16.8484
 11
-14.2243
 21
16.698
  0
LINE
  8
0
 10
-14.2243
 20
16.698
 11
-14.0842
 21
16.5286
  0
LINE
  8
0
 10
-14.0842
 20
16.5286
 11
-13.9665
 21
16.3431
  0
LINE
  8
0
 10
-13.9665
 20
16.3431
 11
-13.8729
 21
16.1442
  0
LINE
  8
0
 10
-13.8729
 20
16.1442
 11
-13.805
 21
15.9352
  0
LINE
  8
0
 10
-13.805
 20
15.9352
 11
-13.7638
 21
15.7193
  0
LINE
  8
0
 10
-13.7638
 20
15.7193
 11
-13.75
 21
15.5
  0
LINE
  8
0
 10
-13.75
 20
15.5
 11
-13.7638
 21
15.2807
  0
LINE
  8
0
 10
-13.7638
 20
15.2807
 11
-13.805
 21
15.0648
  0
LINE
  8
0
 10
-13.805
 20
15.0648
 11
-13.8729
 21
14.8558
  0
LINE
  8
0
 10
-13.8729
 20
14.8558
 11
-13.9665
 21
14.6569
  0
LINE
  8
0
 10
-13.9665
 20
14.6569
 11
-14.0842
 21
14.4714
  0
LINE
  8
0
 10
-14.0842
 20
14.4714
 11
-14.2243
 21
14.302
  0
LINE
  8
0
 10
-14.2243
 20
14.302
 11
-14.3845
 21
14.1516
  0
LINE
  8
0
 10
-14.3845
 20
14.1516
 11
-14.5623
 21
14.0224
  0
LINE
  8
0
 10
-14.5623
 20
14.0224
 11
-14.7549
 21
13.9165
  0
LINE
  8
0
 10
-14.7549
 20
13.9165
 11
-14.9592
 21
13.8356
  0
LINE
  8
0
 10
-14.9592
 20
13.8356
 11
-15.1721
 21
13.781
  0
LINE
  8
0
 10
-15.1721
 20
13.781
 11
-15.3901
 21
13.7534
  0
LINE
  8
0
 10
-15.3901
 20
13.7534
 11
-15.6099
 21
13.7534
  0
LINE
  8
0
 10
15.3901
 20
13.7534
 11
15.1721
 21
13.781
  0
LINE
  8
0
 10
15.1721
 20
13.781
 11
14.9592
 21
13.8356
  0
LINE
  8
0
 10
14.9592
 20
13.8356
 11
14.7549
 21
13.9165
  0
LINE
  8
0
 10
14.7549
 20
13.9165
 11
14.5623
 21
14.0224
  0
LINE
  8
0
 10
14.5623
 20
14.0224
 11
14.3845
 21
14.1516
  0
LINE
  8
0
 10
14.3845
 20
14.1516
 11
14.2243
 21
14.302
  0
LINE
  8
0
 10
14.2243
 20
14.302
 11
14.0842
 21
14.4714
  0
LINE
  8
0
 10
14.0842
 20
14.4714
 11
13.9665
 21
14.6569
  0
LINE
  8
0
 10
13.9665
 20
14.6569
 11
13.8729
 21
14.8558
  0
LINE
  8
0
 10
13.8729
 20
14.8558
 11
13.805
 21
15.0648
  0
LINE
  8
0
 10
13.805
 20
15.0648
 11
13.7638
 21
15.2807
  0
LINE
  8
0
 10
13.7638
 20
15.2807
 11
13.75
 21
15.5
  0
LINE
  8
0
 10
13.75
 20
15.5
 11
13.7638
 21
15.7193
  0
LINE
  8
0
 10
13.7638
 20
15.7193
 11
13.805
 21
15.9352
  0
LINE
  8
0
 10
13.805
 20
15.9352
 11
13.8729
 21
16.1442
  0
LINE
  8
0
 10
13.8729
 20
16.1442
 11
13.9665
 21
16.3431
  0
LINE
  8
0
 10
13.9665
 20
16.3431
 11
14.0842
 21
16.5286
  0
LINE
  8
0
 10
14.0842
 20
16.5286
 11
14.2243
 21
16.698
  0
LINE
  8
0
 10
14.2243
 20
16.698
 11
14.3845
 21
16.8484
  0
LINE
  8
0
 10
14.3845
 20
16.8484
 11
14.5623
 21
16.9776
  0
LINE
  8
0
 10
14.5623
 20
16.9776
 11
14.7549
 21
17.0834
  0
LINE
  8
0
 10
14.7549
 20
17.0834
 11
14.9592
 21
17.1643
  0
LINE
  8
0
 10
14.9592
 20
17.1643
 11
15.1721
 21
17.219
  0
LINE
  8
0
 10
15.1721
 20
17.219
 11
15.3901
 21
17.2465
  0
LINE
  8
0
 10
15.3901
 20
17.2465
 11
15.6099
 21
17.2465
  0
LINE
  8
0
 10
15.6099
 20
17.2465
 11
15.8279
 21
17.219
  0
LINE
  8
0
 10
15.8279
 20
17.219
 11
16.0408
 21
17.1643
  0
LINE
  8
0
 10
16.0408
 20
17.1643
 11
16.2451
 21
17.0834
  0
LINE
  8
0
 10
16.2451
 20
17.0834
 11
16.4377
 21
16.9776
  0
LINE
  8
0
 10
16.4377
 20
16.9776
 11
16.6155
 21
16.8484
  0
LINE
  8
0
 10
16.6155
 20
16.8484
 11
16.7757
 21
16.698
  0
LINE
  8
0
 10
16.7757
 20
16.698
 11
16.9158
 21
16.5286
  0
LINE
  8
0
 10
16.9158
 20
16.5286
 11
17.0335
 21
16.3431
  0
LINE
  8
0
 10
17.0335
 20
16.3431
 11
17.1271
 21
16.1442
  0
LINE
  8
0
 10
17.1271
 20
16.1442
 11
17.195
 21
15.9352
  0
LINE
  8
0
 10
17.195
 20
15.9352
 11
17.2362
 21
15.7193
  0
LINE
  8
0
 10
17.2362
 20
15.7193
 11
17.25
 21
15.5
  0
LINE
  8
0
 10
17.25
 20
15.5
 11
17.2362
 21
15.2807
  0
LINE
  8
0
 10
17.2362
 20
15.2807
 11
17.195
 21
15.0648
  0
LINE
  8
0
 10
17.195
 20
15.0648
 11
17.1271
 21
14.8558
  0
LINE
  8
0
 10
17.1271
 20
14.8558
 11
17.0335
 21
14.6569
  0
LINE
  8
0
 10
17.0335
 20
14.6569
 11
16.9158
 21
14.4714
  0
LINE
  8
0
 10
16.9158
 20
14.4714
 11
16.7757
 21
14.302
  0
LINE
  8
0
 10
16.7757
 20
14.302
 11
16.6155
 21
14.1516
  0
LINE
  8
0
 10
16.6155
 20
14.1516
 11
16.4377
 21
14.0224
  0
LINE
  8
0
 10
16.4377
 20
14.0224
 11
16.2451
 21
13.9165
  0
LINE
  8
0
 10
16.2451
 20
13.9165
 11
16.0408
 21
13.8356
  0
LINE
  8
0
 10
16.0408
 20
13.8356
 11
15.8279
 21
13.781
  0
LINE
  8
0
 10
15.8279
 20
13.781
 11
15.6099
 21
13.7534
  0
LINE
  8
0
 10
15.6099
 20
13.7534
 11
15.3901
 21
13.7534
  0
LINE
  8
0
 10
-8.21976
 20
4.5069
 11
-8.65582
 21
4.56198
  0
LINE
  8
0
 10
-8.65582
 20
4.56198
 11
-9.08156
 21
4.6713
  0
LINE
  8
0
 10
-9.08156
 20
4.6713
 11
-9.49022
 21
4.8331
  0
LINE
  8
0
 10
-9.49022
 20
4.8331
 11
-9.87538
 21
5.04485
  0
LINE
  8
0
 10
-9.87538
 20
5.04485
 11
-10.231
 21
5.30319
  0
LINE
  8
0
 10
-10.231
 20
5.30319
 11
-10.5514
 21
5.60408
  0
LINE
  8
0
 10
-10.5514
 20
5.60408
 11
-10.8316
 21
5.94275
  0
LINE
  8
0
 10
-10.8316
 20
5.94275
 11
-11.0671
 21
6.31386
  0
LINE
  8
0
 10
-11.0671
 20
6.31386
 11
-11.2542
 21
6.71156
  0
LINE
  8
0
 10
-11.2542
 20
6.71156
 11
-11.39
 21
7.12958
  0
LINE
  8
0
 10
-11.39
 20
7.12958
 11
-11.4724
 21
7.56133
  0
LINE
  8
0
 10
-11.4724
 20
7.56133
 11
-11.5
 21
8
  0
LINE
  8
0
 10
-11.5
 20
8
 11
-11.4724
 21
8.43866
  0
LINE
  8
0
 10
-11.4724
 20
8.43866
 11
-11.39
 21
8.87041
  0
LINE
  8
0
 10
-11.39
 20
8.87041
 11
-11.2542
 21
9.28842
  0
LINE
  8
0
 10
-11.2542
 20
9.28842
 11
-11.0671
 21
9.68613
  0
LINE
  8
0
 10
-11.0671
 20
9.68613
 11
-10.8316
 21
10.0572
  0
LINE
  8
0
 10
-10.8316
 20
10.0572
 11
-10.5514
 21
10.3959
  0
LINE
  8
0
 10
-10.5514
 20
10.3959
 11
-10.231
 21
10.6968
  0
LINE
  8
0
 10
-10.231
 20
10.6968
 11
-9.87538
 21
10.9551
  0
LINE
  8
0
 10
-9.87538
 20
10.9551
 11
-9.49022
 21
11.1669
  0
LINE
  8
0
 10
-9.49022
 20
11.1669
 11
-9.08156
 21
11.3287
  0
LINE
  8
0
 10
-9.08156
 20
11.3287
 11
-8.65582
 21
11.438
  0
LINE
  8
0
 10
-8.65582
 20
11.438
 11
-8.21976
 21
11.4931
  0
LINE
  8
0
 10
-8.21976
 20
11.4931
 11
-7.78023
 21
11.4931
  0
LINE
  8
0
 10
-7.78023
 20
11.4931
 11
-7.34416
 21
11.438
  0
LINE
  8
0
 10
-7.34416
 20
11.438
 11
-6.91843
 21
11.3287
  0
LINE
  8
0
 10
-6.91843
 20
11.3287
 11
-6.50977
 21
11.1669
  0
LINE
  8
0
 10
-6.50977
 20
11.1669
 11
-6.1246
 21
10.9551
  0
LINE
  8
0
 10
-6.1246
 20
10.9551
 11
-5.76901
 21
10.6968
  0
LINE
  8
0
 10
-5.76901
 20
10.6968
 11
-5.44861
 21
10.3959
  0
LINE
  8
0
 10
-5.44861
 20
10.3959
 11
-5.16843
 21
10.0572
  0
LINE
  8
0
 10
-5.16843
 20
10.0572
 11
-4.93292
 21
9.68613
  0
LINE
  8
0
 10
-4.93292
 20
9.68613
 11
-4.74577
 21
9.28842
  0
LINE
  8
0
 10
-4.74577
 20
9.28842
 11
-4.60995
 21
8.87041
  0
LINE
  8
0
 10
-4.60995
 20
8.87041
 11
-4.52759
 21
8.43866
  0
LINE
  8
0
 10
-4.52759
 20
8.43866
 11
-4.5
 21
8
  0
LINE
  8
0
 10
-4.5
 20
8
 11
-4.52759
 21
7.56133
  0
LINE
  8
0
 10
-4.52759
 20
7.56133
 11
-4.60995
 21
7.12958
  0
LINE
  8
0
 10
-4.60995
 20
7.12958
 11
-4.74577
 21
6.71156
  0
LINE
  8
0
 10
-4.74577
 20
6.71156
 11
-4.93292
 21
6.31386
  0
LINE
  8
0
 10
-4.93292
 20
6.31386
 11
-5.16843
 21
5.94275
  0
LINE
  8
0
 10
-5.16843
 20
5.94275
 11
-5.44861
 21
5.60408
  0
LINE
  8
0
 10
-5.44861
 20
5.60408
 11
-5.76901
 21
5.30319
  0
LINE
  8
0
 10
-5.76901
 20
5.30319
 11
-6.1246
 21
5.04485
  0
LINE
  8
0
 10
-6.1246
 20
5.04485
 11
-6.50977
 21
4.8331
  0
LINE
  8
0
 10
-6.50977
 20
4.8331
 11
-6.91843
 21
4.6713
  0
LINE
  8
0
 10
-6.91843
 20
4.6713
 11
-7.34416
 21
4.56198
  0
LINE
  8
0
 10
-7.34416
 20
4.56198
 11
-7.78023
 21
4.5069
  0
LINE
  8
0
 10
-7.78023
 20
4.5069
 11
-8.21976
 21
4.5069
  0
LINE
  8
0
 10
7.78023
 20
4.5069
 11
7.34416
 21
4.56198
  0
LINE
  8
0
 10
7.34416
 20
4.56198
 11
6.91843
 21
4.6713
  0
LINE
  8
0
 10
6.91843
 20
4.6713
 11
6.50977
 21
4.8331
  0
LINE
  8
0
 10
6.50977
 20
4.8331
 11
6.1246
 21
5.04485
  0
LINE
  8
0
 10
6.1246
 20
5.04485
 11
5.76901
 21
5.30319
  0
LINE
  8
0
 10
5.76901
 20
5.30319
 11
5.44861
 21
5.60408
  0
LINE
  8
0
 10
5.44861
 20
5.60408
 11
5.16843
 21
5.94275
  0
LINE
  8
0
 10
5.16843
 20
5.94275
 11
4.93292
 21
6.31386
  0
LINE
  8
0
 10
4.93292
 20
6.31386
 11
4.74577
 21
6.71156
  0
LINE
  8
0
 10
4.74577
 20
6.71156
 11
4.60995
 21
7.12958
  0
LINE
  8
0
 10
4.60995
 20
7.12958
 11
4.52759
 21
7.56133
  0
LINE
  8
0
 10
4.52759
 20
7.56133
 11
4.5
 21
8
  0
LINE
  8
0
 10
4.5
 20
8
 11
4.52759
 21
8.43866
  0
LINE
  8
0
 10
4.52759
 20
8.43866
 11
4.60995
 21
8.87041
  0
LINE
  8
0
 10
4.60995
 20
8.87041
 11
4.74577
 21
9.28842
  0
LINE
  8
0
 10
4.74577
 20
9.28842
 11
4.93292
 21
9.68613
  0
LINE
  8
0
 10
4.93292
 20
9.68613
 11
5.16843
 21
10.0572
  0
LINE
  8
0
 10
5.16843
 20
10.0572
 11
5.44861
 21
10.3959
  0
LINE
  8
0
 10
5.44861
 20
10.3959
 11
5.76901
 21
10.6968
  0
LINE
  8
0
 10
5.76901
 20
10.6968
 11
6.1246
 21
10.9551
  0
LINE
  8
0
 10
6.1246
 20
10.9551
 11
6.50977
 21
11.1669
  0
LINE
  8
0
 10
6.50977
 20
11.1669
 11
6.91843
 21
11.3287
  0
LINE
  8
0
 10
6.91843
 20
11.3287
 11
7.34416
 21
11.438
  0
LINE
  8
0
 10
7.34416
 20
11.438
 11
7.78023
 21
11.4931
  0
LINE
  8
0
 10
7.78023
 20
11.4931
 11
8.21976
 21
11.4931
  0
LINE
  8
0
 10
8.21976
 20
11.4931
 11
8.65582
 21
11.438
  0
LINE
  8
0
 10
8.65582
 20
11.438
 11
9.08156
 21
11.3287
  0
LINE
  8
0
 10
9.08156
 20
11.3287
 11
9.49022
 21
11.1669
  0
LINE
  8
0
 10
9.49022
 20
11.1669
 11
9.87538
 21
10.9551
  0
LINE
  8
0
 10
9.87538
 20
10.9551
 11
10.231
 21
10.6968
  0
LINE
  8
0
 10
10.231
 20
10.6968
 11
10.5514
 21
10.3959
  0
LINE
  8
0
 10
10.5514
 20
10.3959
 11
10.8316
 21
10.0572
  0
LINE
  8
0
 10
10.8316
 20
10.0572
 11
11.0671
 21
9.68613
  0
LINE
  8
0
 10
11.0671
 20
9.68613
 11
11.2542
 21
9.28842
  0
LINE
  8
0
 10
11.2542
 20
9.28842
 11
11.39
 21
8.87041
  0
LINE
  8
0
 10
11.39
 20
8.87041
 11
11.4724
 21
8.43866
  0
LINE
  8
0
 10
11.4724
 20
8.43866
 11
11.5
 21
8
  0
LINE
  8
0
 10
11.5
 20
8
 11
11.4724
 21
7.56133
  0
LINE
  8
0
 10
11.4724
 20
7.56133
 11
11.39
 21
7.12958
  0
LINE
  8
0
 10
11.39
 20
7.12958
 11
11.2542
 21
6.71156
  0
LINE
  8
0
 10
11.2542
 20
6.71156
 11
11.0671
 21
6.31386
  0
LINE
  8
0
 10
11.0671
 20
6.31386
 11
10.8316
 21
5.94275
  0
LINE
  8
0
 10
10.8316
 20
5.94275
 11
10.5514
 21
5.60408
  0
LINE
  8
0
 10
10.5514
 20
5.60408
 11
10.231
 21
5.30319
  0
LINE
  8
0
 10
10.231
 20
5.30319
 11
9.87538
 21
5.04485
  0
LINE
  8
0
 10
9.87538
 20
5.04485
 11
9.49022
 21
4.8331
  0
LINE
  8
0
 10
9.49022
 20
4.8331
 11
9.08156
 21
4.6713
  0
LINE
  8
0
 10
9.08156
 20
4.6713
 11
8.65582
 21
4.56198
  0
LINE
  8
0
 10
8.65582
 20
4.56198
 11
8.21976
 21
4.5069
  0
LINE
  8
0
 10
8.21976
 20
4.5069
 11
7.78023
 21
4.5069
  0
LINE
  8
0
 10
-8.21976
 20
-11.4931
 11
-8.65582
 21
-11.438
  0
LINE
  8
0
 10
-8.65582
 20
-11.438
 11
-9.08156
 21
-11.3287
  0
LINE
  8
0
 10
-9.08156
 20
-11.3287
 11
-9.49022
 21
-11.1669
  0
LINE
  8
0
 10
-9.49022
 20
-11.1669
 11
-9.87538
 21
-10.9551
  0
LINE
  8
0
 10
-9.87538
 20
-10.9551
 11
-10.231
 21
-10.6968
  0
LINE
  8
0
 10
-10.231
 20
-10.6968
 11
-10.5514
 21
-10.3959
  0
LINE
  8
0
 10
-10.5514
 20
-10.3959
 11
-10.8316
 21
-10.0572
  0
LINE
  8
0
 10
-10.8316
 20
-10.0572
 11
-11.0671
 21
-9.68613
  0
LINE
  8
0
 10
-11.0671
 20
-9.68613
 11
-11.2542
 21
-9.28842
  0
LINE
  8
0
 10
-11.2542
 20
-9.28842
 11
-11.39
 21
-8.87041
  0
LINE
  8
0
 10
-11.39
 20
-8.87041
 11
-11.4724
 21
-8.43866
  0
LINE
  8
0
 10
-11.4724
 20
-8.43866
 11
-11.5
 21
-8
  0
LINE
  8
0
 10
-11.5
 20
-8
 11
-11.4724
 21
-7.56133
  0
LINE
  8
0
 10
-11.4724
 20
-7.56133
 11
-11.39
 21
-7.12958
  0
LINE
  8
0
 10
-11.39
 20
-7.12958
 11
-11.2542
 21
-6.71156
  0
LINE
  8
0
 10
-11.2542
 20
-6.71156
 11
-11.0671
 21
-6.31386
  0
LINE
  8
0
 10
-11.0671
 20
-6.31386
 11
-10.8316
 21
-5.94275
  0
LINE
  8
0
 10
-10.8316
 20
-5.94275
 11
-10.5514
 21
-5.60408
  0
LINE
  8
0
 10
-10.5514
 20
-5.60408
 11
-10.231
 21
-5.30319
  0
LINE
  8
0
 10
-10.231
 20
-5.30319
 11
-9.87538
 21
-5.04485
  0
LINE
  8
0
 10
-9.87538
 20
-5.04485
 11
-9.49022
 21
-4.8331
  0
LINE
  8
0
 10
-9.49022
 20
-4.8331
 11
-9.08156
 21
-4.6713
  0
LINE
  8
0
 10
-9.08156
 20
-4.6713
 11
-8.65582
 21
-4.56198
  0
LINE
  8
0
 10
-8.65582
 20
-4.56198
 11
-8.21976
 21
-4.5069
  0
LINE
  8
0
 10
-8.21976
 20
-4.5069
 11
-7.78023
 21
-4.5069
  0
LINE
  8
0
 10
-7.78023
 20
-4.5069
 11
-7.34416
 21
-4.56198
  0
LINE
  8
0
 10
-7.34416
 20
-4.56198
 11
-6.91843
 21
-4.6713
  0
LINE
  8
0
 10
-6.91843
 20
-4.6713
 11
-6.50977
 21
-4.8331
  0
LINE
  8
0
 10
-6.50977
 20
-4.8331
 11
-6.1246
 21
-5.04485
  0
LINE
  8
0
 10
-6.1246
 20
-5.04485
 11
-5.76901
 21
-5.30319
  0
LINE
  8
0
 10
-5.76901
 20
-5.30319
 11
-5.44861
 21
-5.60408
  0
LINE
  8
0
 10
-5.44861
 20
-5.60408
 11
-5.16843
 21
-5.94275
  0
LINE
  8
0
 10
-5.16843
 20
-5.94275
 11
-4.93292
 21
-6.31386
  0
LINE
  8
0
 10
-4.93292
 20
-6.31386
 11
-4.74577
 21
-6.71156
  0
LINE
  8
0
 10
-4.74577
 20
-6.71156
 11
-4.60995
 21
-7.12958
  0
LINE
  8
0
 10
-4.60995
 20
-7.12958
 11
-4.52759
 21
-7.56133
  0
LINE
  8
0
 10
-4.52759
 20
-7.56133
 11
-4.5
 21
-8
  0
LINE
  8
0
 10
-4.5
 20
-8
 11
-4.52759
 21
-8.43866
  0
LINE
  8
0
 10
-4.52759
 20
-8.43866
 11
-4.60995
 21
-8.87041
  0
LINE
  8
0
 10
-4.60995
 20
-8.87041
 11
-4.74577
 21
-9.28842
  0
LINE
  8
0
 10
-4.74577
 20
-9.28842
 11
-4.93292
 21
-9.68613
  0
LINE
  8
0
 10
-4.93292
 20
-9.68613
 11
-5.16843
 21
-10.0572
  0
LINE
  8
0
 10
-5.16843
 20
-10.0572
 11
-5.44861
 21
-10.3959
  0
LINE
  8
0
 10
-5.44861
 20
-10.3959
 11
-5.76901
 21
-10.6968
  0
LINE
  8
0
 10
-5.76901
 20
-10.6968
 11
-6.1246
 21
-10.9551
  0
LINE
  8
0
 10
-6.1246
 20
-10.9551
 11
-6.50977
 21
-11.1669
  0
LINE
  8
0
 10
-6.50977
 20
-11.1669
 11
-6.91843
 21
-11.3287
  0
LINE
  8
0
 10
-6.91843
 20
-11.3287
 11
-7.34416
 21
-11.438
  0
LINE
  8
0
 10
-7.34416
 20
-11.438
 11
-7.78023
 21
-11.4931
  0
LINE
  8
0
 10
-7.78023
 20
-11.4931
 11
-8.21976
 21
-11.4931
  0
LINE
  8
0
 10
7.78023
 20
-11.4931
 11
7.34416
 21
-11.438
  0
LINE
  8
0
 10
7.34416
 20
-11.438
 11
6.91843
 21
-11.3287
  0
LINE
  8
0
 10
6.91843
 20
-11.3287
 11
6.50977
 21
-11.1669
  0
LINE
  8
0
 10
6.50977
 20
-11.1669
 11
6.1246
 21
-10.9551
  0
LINE
  8
0
 10
6.1246
 20
-10.9551
 11
5.76901
 21
-10.6968
  0
LINE
  8
0
 10
5.76901
 20
-10.6968
 11
5.44861
 21
-10.3959
  0
LINE
  8
0
 10
5.44861
 20
-10.3959
 11
5.16843
 21
-10.0572
  0
LINE
  8
0
 10
5.16843
 20
-10.0572
 11
4.93292
 21
-9.68613
  0
LINE
  8
0
 10
4.93292
 20
-9.68613
 11
4.74577
 21
-9.28842
  0
LINE
  8
0
 10
4.74577
 20
-9.28842
 11
4.60995
 21
-8.87041
  0
LINE
  8
0
 10
4.60995
 20
-8.87041
 11
4.52759
 21
-8.43866
  0
LINE
  8
0
 10
4.52759
 20
-8.43866
 11
4.5
 21
-8
  0
LINE
  8
0
 10
4.5
 20
-8
 11
4.52759
 21
-7.56133
  0
LINE
  8
0
 10
4.52759
 20
-7.56133
 11
4.60995
 21
-7.12958
  0
LINE
  8
0
 10
4.60995
 20
-7.12958
 11
4.74577
 21
-6.71156
  0
LINE
  8
0
 10
4.74577
 20
-6.71156
 11
4.93292
 21
-6.31386
  0
LINE
  8
0
 10
4.93292
 20
-6.31386
 11
5.16843
 21
-5.94275
  0
LINE
  8
0
 10
5.16843
 20
-5.94275
 11
5.44861
 21
-5.60408
  0
LINE
  8
0
 10
5.44861
 20
-5.60408
 11
5.76901
 21
-5.30319
  0
LINE
  8
0
 10
5.76901
 20
-5.30319
 11
6.1246
 21
-5.04485
  0
LINE
  8
0
 10
6.1246
 20
-5.04485
 11
6.50977
 21
-4.8331
  0
LINE
  8
0
 10
6.50977
 20
-4.8331
 11
6.91843
 21
-4.6713
  0
LINE
  8
0
 10
6.91843
 20
-4.6713
 11
7.34416
 21
-4.56198
  0
LINE
  8
0
 10
7.34416
 20
-4.56198
 11
7.78023
 21
-4.5069
  0
LINE
  8
0
 10
7.78023
 20
-4.5069
 11
8.21976
 21
-4.5069
  0
LINE
  8
0
 10
8.21976
 20
-4.5069
 11
8.65582
 21
-4.56198
  0
LINE
  8
0
 10
8.65582
 20
-4.56198
 11
9.08156
 21
-4.6713
  0
LINE
  8
0
 10
9.08156
 20
-4.6713
 11
9.49022
 21
-4.8331
  0
LINE
  8
0
 10
9.49022
 20
-4.8331
 11
9.87538
 21
-5.04485
  0
LINE
  8
0
 10
9.87538
 20
-5.04485
 11
10.231
 21
-5.30319
  0
LINE
  8
0
 10
10.231
 20
-5.30319
 11
10.5514
 21
-5.60408
  0
LINE
  8
0
 10
10.5514
 20
-5.60408
 11
10.8316
 21
-5.94275
  0
LINE
  8
0
 10
10.8316
 20
-5.94275
 11
11.0671
 21
-6.31386
  0
LINE
  8
0
 10
11.0671
 20
-6.31386
 11
11.2542
 21
-6.71156
  0
LINE
  8
0
 10
11.2542
 20
-6.71156
 11
11.39
 21
-7.12958
  0
LINE
  8
0
 10
11.39
 20
-7.12958
 11
11.4724
 21
-7.56133
  0
LINE
  8
0
 10
11.4724
 20
-7.56133
 11
11.5
 21
-8
  0
LINE
  8
0
 10
11.5
 20
-8
 11
11.4724
 21
-8.43866
  0
LINE
  8
0
 10
11.4724
 20
-8.43866
 11
11.39
 21
-8.87041
  0
LINE
  8
0
 10
11.39
 20
-8.87041
 11
11.2542
 21
-9.28842
  0
LINE
  8
0
 10
11.2542
 20
-9.28842
 11
11.0671
 21
-9.68613
  0
LINE
  8
0
 10
11.0671
 20
-9.68613
 11
10.8316
 21
-10.0572
  0
LINE
  8
0
 10
10.8316
 20
-10.0572
 11
10.5514
 21
-10.3959
  0
LINE
  8
0
 10
10.5514
 20
-10.3959
 11
10.231
 21
-10.6968
  0
LINE
  8
0
 10
10.231
 20
-10.6968
 11
9.87538
 21
-10.9551
  0
LINE
  8
0
 10
9.87538
 20
-10.9551
 11
9.49022
 21
-11.1669
  0
LINE
  8
0
 10
9.49022
 20
-11.1669
 11
9.08156
 21
-11.3287
  0
LINE
  8
0
 10
9.08156
 20
-11.3287
 11
8.65582
 21
-11.438
  0
LINE
  8
0
 10
8.65582
 20
-11.438
 11
8.21976
 21
-11.4931
  0
LINE
  8
0
 10
8.21976
 20
-11.4931
 11
7.78023
 21
-11.4931
  0
LINE
  8
0
 10
-15.6099
 20
-17.2465
 11
-15.8279
 21
-17.219
  0
LINE
  8
0
 10
-15.8279
 20
-17.219
 11
-16.0408
 21
-17.1643
  0
LINE
  8
0
 10
-16.0408
 20
-17.1643
 11
-16.2451
 21
-17.0834
  0
LINE
  8
0
 10
-16.2451
 20
-17.0834
 11
-16.4377
 21
-16.9776
  0
LINE
  8
0
 10
-16.4377
 20
-16.9776
 11
-16.6155
 21
-16.8484
  0
LINE
  8
0
 10
-16.6155
 20
-16.8484
 11
-16.7757
 21
-16.698
  0
LINE
  8
0
 10
-16.7757
 20
-16.698
 11
-16.9158
 21
-16.5286
  0
LINE
  8
0
 10
-16.9158
 20
-16.5286
 11
-17.0335
 21
-16.3431
  0
LINE
  8
0
 10
-17.0335
 20
-16.3431
 11
-17.1271
 21
-16.1442
  0
LINE
  8
0
 10
-17.1271
 20
-16.1442
 11
-17.195
 21
-15.9352
  0
LINE
  8
0
 10
-17.195
 20
-15.9352
 11
-17.2362
 21
-15.7193
  0
LINE
  8
0
 10
-17.2362
 20
-15.7193
 11
-17.25
 21
-15.5
  0
LINE
  8
0
 10
-17.25
 20
-15.5
 11
-17.2362
 21
-15.2807
  0
LINE
  8
0
 10
-17.2362
 20
-15.2807
 11
-17.195
 21
-15.0648
  0
LINE
  8
0
 10
-17.195
 20
-15.0648
 11
-17.1271
 21
-14.8558
  0
LINE
  8
0
 10
-17.1271
 20
-14.8558
 11
-17.0335
 21
-14.6569
  0
LINE
  8
0
 10
-17.0335
 20
-14.6569
 11
-16.9158
 21
-14.4714
  0
LINE
  8
0
 10
-16.9158
 20
-14.4714
 11
-16.7757
 21
-14.302
  0
LINE
  8
0
 10
-16.7757
 20
-14.302
 11
-16.6155
 21
-14.1516
  0
LINE
  8
0
 10
-16.6155
 20
-14.1516
 11
-16.4377
 21
-14.0224
  0
LINE
  8
0
 10
-16.4377
 20
-14.0224
 11
-16.2451
 21
-13.9165
  0
LINE
  8
0
 10
-16.2451
 20
-13.9165
 11
-16.0408
 21
-13.8356
  0
LINE
  8
0
 10
-16.0408
 20
-13.8356
 11
-15.8279
 21
-13.781
  0
LINE
  8
0
 10
-15.8279
 20
-13.781
 11
-15.6099
 21
-13.7534
  0
LINE
  8
0
 10
-15.6099
 20
-13.7534
 11
-15.3901
 21
-13.7534
  0
LINE
  8
0
 10
-15.3901
 20
-13.7534
 11
-15.1721
 21
-13.781
  0
LINE
  8
0
 10
-15.1721
 20
-13.781
 11
-14.9592
 21
-13.8356
  0
LINE
  8
0
 10
-14.9592
 20
-13.8356
 11
-14.7549
 21
-13.9165
  0
LINE
  8
0
 10
-14.7549
 20
-13.9165
 11
-14.5623
 21
-14.0224
  0
LINE
  8
0
 10
-14.5623
 20
-14.0224
 11
-14.3845
 21
-14.1516
  0
LINE
  8
0
 10
-14.3845
 20
-14.1516
 11
-14.2243
 21
-14.302
  0
LINE
  8
0
 10
-14.2243
 20
-14.302
 11
-14.0842
 21
-14.4714
  0
LINE
  8
0
 10
-14.0842
 20
-14.4714
 11
-13.9665
 21
-14.6569
  0
LINE
  8
0
 10
-13.9665
 20
-14.6569
 11
-13.8729
 21
-14.8558
  0
LINE
  8
0
 10
-13.8729
 20
-14.8558
 11
-13.805
 21
-15.0648
  0
LINE
  8
0
 10
-13.805
 20
-15.0648
 11
-13.7638
 21
-15.2807
  0
LINE
  8
0
 10
-13.7638
 20
-15.2807
 11
-13.75
 21
-15.5
  0
LINE
  8
0
 10
-13.75
 20
-15.5
 11
-13.7638
 21
-15.7193
  0
LINE
  8
0
 10
-13.7638
 20
-15.7193
 11
-13.805
 21
-15.9352
  0
LINE
  8
0
 10
-13.805
 20
-15.9352
 11
-13.8729
 21
-16.1442
  0
LINE
  8
0
 10
-13.8729
 20
-16.1442
 11
-13.9665
 21
-16.3431
  0
LINE
  8
0
 10
-13.9665
 20
-16.3431
 11
-14.0842
 21
-16.5286
  0
LINE
  8
0
 10
-14.0842
 20
-16.5286
 11
-14.2243
 21
-16.698
  0
LINE
  8
0
 10
-14.2243
 20
-16.698
 11
-14.3845
 21
-16.8484
  0
LINE
  8
0
 10
-14.3845
 20
-16.8484
 11
-14.5623
 21
-16.9776
  0
LINE
  8
0
 10
-14.5623
 20
-16.9776
 11
-14.7549
 21
-17.0834
  0
LINE
  8
0
 10
-14.7549
 20
-17.0834
 11
-14.9592
 21
-17.1643
  0
LINE
  8
0
 10
-14.9592
 20
-17.1643
 11
-15.1721
 21
-17.219
  0
LINE
  8
0
 10
-15.1721
 20
-17.219
 11
-15.3901
 21
-17.2465
  0
LINE
  8
0
 10
-15.3901
 20
-17.2465
 11
-15.6099
 21
-17.2465
  0
LINE
  8
0
 10
15.3901
 20
-17.2465
 11
15.1721
 21
-17.219
  0
LINE
  8
0
 10
15.1721
 20
-17.219
 11
14.9592
 21
-17.1643
  0
LINE
  8
0
 10
14.9592
 20
-17.1643
 11
14.7549
 21
-17.0834
  0
LINE
  8
0
 10
14.7549
 20
-17.0834
 11
14.5623
 21
-16.9776
  0
LINE
  8
0
 10
14.5623
 20
-16.9776
 11
14.3845
 21
-16.8484
  0
LINE
  8
0
 10
14.3845
 20
-16.8484
 11
14.2243
 21
-16.698
  0
LINE
  8
0
 10
14.2243
 20
-16.698
 11
14.0842
 21
-16.5286
  0
LINE
  8
0
 10
14.0842
 20
-16.5286
 11
13.9665
 21
-16.3431
  0
LINE
  8
0
 10
13.9665
 20
-16.3431
 11
13.8729
 21
-16.1442
  0
LINE
  8
0
 10
13.8729
 20
-16.1442
 11
13.805
 21
-15.9352
  0
LINE
  8
0
 10
13.805
 20
-15.9352
 11
13.7638
 21
-15.7193
  0
LINE
  8
0
 10
13.7638
 20
-15.7193
 11
13.75
 21
-15.5
  0
LINE
  8
0
 10
13.75
 20
-15.5
 11
13.7638
 21
-15.2807
  0
LINE
  8
0
 10
13.7638
 20
-15.2807
 11
13.805
 21
-15.0648
  0
LINE
  8
0
 10
13.805
 20
-15.0648
 11
13.8729
 21
-14.8558
  0
LINE
  8
0
 10
13.8729
 20
-14.8558
 11
13.9665
 21
-14.6569
  0
LINE
  8
0
 10
13.9665
 20
-14.6569
 11
14.0842
 21
-14.4714
  0
LINE
  8
0
 10
14.0842
 20
-14.4714
 11
14.2243
 21
-14.302
  0
LINE
  8
0
 10
14.2243
 20
-14.302
 11
14.3845
 21
-14.1516
  0
LINE
  8
0
 10
14.3845
 20
-14.1516
 11
14.5623
 21
-14.0224
  0
LINE
  8
0
 10
14.5623
 20
-14.0224
 11
14.7549
 21
-13.9165
  0
LINE
  8
0
 10
14.7549
 20
-13.9165
 11
14.9592
 21
-13.8356
  0
LINE
  8
0
 10
14.9592
 20
-13.8356
 11
15.1721
 21
-13.781
  0
LINE
  8
0
 10
15.1721
 20
-13.781
 11
15.3901
 21
-13.7534
  0
LINE
  8
0
 10
15.3901
 20
-13.7534
 11
15.6099
 21
-13.7534
  0
LINE
  8
0
 10
15.6099
 20
-13.7534
 11
15.8279
 21
-13.781
  0
LINE
  8
0
 10
15.8279
 20
-13.781
 11
16.0408
 21
-13.8356
  0
LINE
  8
0
 10
16.0408
 20
-13.8356
 11
16.2451
 21
-13.9165
  0
LINE
  8
0
 10
16.2451
 20
-13.9165
 11
16.4377
 21
-14.0224
  0
LINE
  8
0
 10
16.4377
 20
-14.0224
 11
16.6155
 21
-14.1516
  0
LINE
  8
0
 10
16.6155
 20
-14.1516
 11
16.7757
 21
-14.302
  0
LINE
  8
0
 10
16.7757
 20
-14.302
 11
16.9158
 21
-14.4714
  0
LINE
  8
0
 10
16.9158
 20
-14.4714
 11
17.0335
 21
-14.6569
  0
LINE
  8
0
 10
17.0335
 20
-14.6569
 11
17.1271
 21
-14.8558
  0
LINE
  8
0
 10
17.1271
 20
-14.8558
 11
17.195
 21
-15.0648
  0
LINE
  8
0
 10
17.195
 20
-15.0648
 11
17.2362
 21
-15.2807
  0
LINE
  8
0
 10
17.2362
 20
-15.2807
 11
17.25
 21
-15.5
  0
LINE
  8
0
 10
17.25
 20
-15.5
 11
17.2362
 21
-15.7193
  0
LINE
  8
0
 10
17.2362
 20
-15.7193
 11
17.195
 21
-15.9352
  0
LINE
  8
0
 10
17.195
 20
-15.9352
 11
17.1271
 21
-16.1442
  0
LINE
  8
0
 10
17.1271
 20
-16.1442
 11
17.0335
 21
-16.3431
  0
LINE
  8
0
 10
17.0335
 20
-16.3431
 11
16.9158
 21
-16.5286
  0
LINE
  8
0
 10
16.9158
 20
-16.5286
 11
16.7757
 21
-16.698
  0
LINE
  8
0
 10
16.7757
 20
-16.698
 11
16.6155
 21
-16.8484
  0
LINE
  8
0
 10
16.6155
 20
-16.8484
 11
16.4377
 21
-16.9776
  0
LINE
  8
0
 10
16.4377
 20
-16.9776
 11
16.2451
 21
-17.0834
  0
LINE
  8
0
 10
16.2451
 20
-17.0834
 11
16.0408
 21
-17.1643
  0
LINE
  8
0
 10
16.0408
 20
-17.1643
 11
15.8279
 21
-17.219
  0
LINE
  8
0
 10
15.8279
 20
-17.219
 11
15.6099
 21
-17.2465
  0
LINE
  8
0
 10
15.6099
 20
-17.2465
 11
15.3901
 21
-17.2465
  0
ENDSEC
  0
SECTION
  2
OBJECTS
  0
DICTIONARY
  0
ENDSEC
  0
EOF
